<svg width="24" height="25" viewBox="0 0 24 25" fill="none" xmlns="http://www.w3.org/2000/svg">
<path d="M18 9.1793C18 7.4823 17.368 5.8543 16.243 4.6543C15.117 3.4543 13.59 2.7793 12 2.7793C10.409 2.7793 8.883 3.4533 7.757 4.6543C6.632 5.8543 6 7.4823 6 9.1793C6 16.6463 3 18.7793 3 18.7793H21C21 18.7793 18 16.6463 18 9.1793Z" stroke="black" stroke-linecap="round" stroke-linejoin="round"/>
<path d="M13.7295 21.7793C13.5539 22.0826 13.3016 22.3345 12.998 22.5095C12.6944 22.6846 12.35 22.7767 11.9995 22.7767C11.649 22.7767 11.3047 22.6846 11.0011 22.5095C10.6974 22.3345 10.4451 22.0826 10.2695 21.7793" stroke="black" stroke-linecap="round" stroke-linejoin="round"/>
</svg>
